<svg width="164" height="36" viewBox="0 0 164 36" fill="none" xmlns="http://www.w3.org/2000/svg">
<g clip-path="url(#clip0_54_1057)">
<mask id="mask0_54_1057" style="mask-type:luminance" maskUnits="userSpaceOnUse" x="0" y="0" width="164" height="36">
<path d="M0.197594 0.197754H163.802V35.8022H0.197594V0.197754Z" fill="white"/>
</mask>
<g mask="url(#mask0_54_1057)">
<mask id="mask1_54_1057" style="mask-type:luminance" maskUnits="userSpaceOnUse" x="0" y="0" width="164" height="36">
<path d="M163.802 0.197754H0.197594V35.8022H163.802V0.197754Z" fill="white"/>
</mask>
<g mask="url(#mask1_54_1057)">
<path d="M159.303 35.8022C157.984 35.8022 156.9 35.4208 156.05 34.6577C155.229 33.8657 154.819 32.8972 154.819 31.7531C154.819 30.5794 155.229 29.5967 156.05 28.8043C156.9 28.0123 157.984 27.6163 159.303 27.6163C160.593 27.6163 161.648 28.0119 162.469 28.8043C163.319 29.5967 163.744 30.5794 163.744 31.7531C163.744 32.8972 163.319 33.8657 162.469 34.6577C161.648 35.4208 160.593 35.8022 159.303 35.8022ZM124.453 23.127C124.453 20.6038 124.922 18.3888 125.86 16.4816C126.827 14.5748 128.131 13.1075 129.772 12.0805C131.414 11.0535 133.245 10.5404 135.268 10.5404C136.997 10.5404 138.507 10.8925 139.796 11.5967C141.115 12.3009 142.126 13.225 142.829 14.3691V10.8921H150.347V35.4501H142.829V31.9731C142.097 33.1176 141.071 34.0421 139.752 34.7459C138.462 35.4501 136.953 35.8022 135.224 35.8022C133.231 35.8022 131.414 35.2887 129.772 34.2617C128.131 33.2054 126.827 31.7239 125.86 29.8167C124.922 27.8802 124.453 25.6505 124.453 23.127ZM142.829 23.1713C142.829 21.2934 142.302 19.8118 141.247 18.7263C140.221 17.6407 138.961 17.0976 137.466 17.0976C135.971 17.0976 134.696 17.6407 133.641 18.7263C132.615 19.7825 132.102 21.2494 132.102 23.1274C132.102 25.0049 132.615 26.5015 133.641 27.6163C134.696 28.7018 135.971 29.2446 137.466 29.2446C138.961 29.2446 140.221 28.7018 141.247 27.6163C142.302 26.5308 142.829 25.0488 142.829 23.1713ZM120.499 2.88193V35.4501H112.981V2.88193H120.499ZM103.797 8.33929C102.478 8.33929 101.394 7.95833 100.544 7.1956C99.7235 6.4032 99.3133 5.43516 99.3133 4.29068C99.3133 3.11692 99.7235 2.14887 100.544 1.38615C101.394 0.593358 102.478 0.197754 103.797 0.197754C105.087 0.197754 106.142 0.593754 106.963 1.38615C107.813 2.14887 108.238 3.11692 108.238 4.29068C108.238 5.43516 107.813 6.4032 106.963 7.1956C106.142 7.95833 105.087 8.33929 103.797 8.33929ZM107.534 10.8921V35.4501H100.017V10.8921H107.534ZM85.3401 10.6279C88.2122 10.6279 90.4984 11.5666 92.1984 13.4446C93.9274 15.2928 94.792 17.8457 94.792 21.1023V35.4501H87.3183V22.1146C87.3183 20.4717 86.8935 19.1951 86.0435 18.2856C85.1935 17.3761 84.0506 16.9215 82.6141 16.9215C81.178 16.9215 80.0352 17.3765 79.1851 18.2856C78.3351 19.1955 77.9103 20.4717 77.9103 22.1146V35.4497H70.3924V10.8921H77.9103V14.1487C78.6722 13.0632 79.6981 12.2123 80.9876 11.5963C82.2774 10.9507 83.7281 10.6279 85.3401 10.6279ZM39.0597 23.127C39.0597 20.6038 39.5287 18.3888 40.4665 16.4816C41.4335 14.5748 42.738 13.1075 44.3792 12.0805C46.0204 11.0535 47.852 10.5404 49.8746 10.5404C51.6039 10.5404 53.1131 10.8925 54.4026 11.5967C55.7217 12.3009 56.7329 13.225 57.4364 14.3691V10.8921H64.9539V35.4501H57.4364V31.9731C56.7033 33.1176 55.6778 34.0421 54.3587 34.7459C53.0692 35.4501 51.5596 35.8022 49.8307 35.8022C47.8374 35.8022 46.0204 35.2887 44.3792 34.2617C42.738 33.2054 41.4335 31.7239 40.4665 29.8167C39.5287 27.8802 39.0597 25.6505 39.0597 23.127ZM57.4364 23.1713C57.4364 21.2934 56.9088 19.8118 55.8537 18.7263C54.8278 17.6407 53.5675 17.0976 52.0726 17.0976C50.578 17.0976 49.3031 17.6407 48.248 18.7263C47.2221 19.7825 46.7092 21.2494 46.7092 23.1274C46.7092 25.0049 47.2221 26.5015 48.248 27.6163C49.3031 28.7018 50.578 29.2446 52.0726 29.2446C53.5675 29.2446 54.8278 28.7018 55.8537 27.6163C56.9088 26.5308 57.4364 25.0488 57.4364 23.1713ZM35.1482 4.55415V35.4493H27.631V16.9207L20.7284 35.4493H14.6612L7.71512 16.8764V35.4489H0.197594V4.55415H9.0781L17.7389 25.9429L26.3115 4.55415H35.1482Z" fill="white" fill-opacity="0.4"/>
</g>
</g>
</g>
<defs>
<clipPath id="clip0_54_1057">
<rect width="164" height="36" fill="white"/>
</clipPath>
</defs>
</svg>
